<svg width="33" height="33" viewBox="0 0 33 33" fill="none" xmlns="http://www.w3.org/2000/svg">
<path id="Vector" d="M14.5955 32.4863C11.7415 32.1158 8.80347 30.8903 6.66347 29.1752C1.84547 25.3266 -0.341533 19.2462 0.908467 13.2079C1.44447 10.6007 2.84047 7.85736 4.62747 5.88096C5.94386 4.39766 7.53136 3.18002 9.30447 2.2936C11.6585 1.09915 13.9085 0.5625 16.5645 0.5625C18.4705 0.5625 20.0025 0.812804 21.7575 1.41253C24.0631 2.20434 26.1577 3.51271 27.8817 5.23791C29.6056 6.96312 30.9135 9.05962 31.7055 11.3676C32.6435 14.121 32.8145 17.0515 32.2155 19.9561C31.7365 22.2508 30.5015 24.832 28.9815 26.6982C28.3565 27.4702 26.9185 28.8468 26.1635 29.4045C23.9048 31.0841 21.2484 32.1461 18.4555 32.4863C17.6325 32.5904 15.3915 32.5854 14.5955 32.4863ZM18.9555 31.1466C22.8538 30.4925 26.3329 28.3147 28.6275 25.0923C31.3305 21.2907 32.0545 16.1905 30.5285 11.7431C30.1695 10.6998 29.2785 8.9587 28.6275 8.04058C27.9035 7.01333 26.1115 5.21415 25.0805 4.48927C24.0805 3.78041 22.3775 2.91936 21.2155 2.5389C19.118 1.84119 16.8907 1.62426 14.6982 1.90414C12.5057 2.18401 10.404 2.95354 8.54847 4.15586C6.80264 5.30408 5.31029 6.79825 4.16347 8.5462C2.96291 10.403 2.19447 12.5062 1.91493 14.7004C1.63539 16.8945 1.8519 19.1235 2.54847 21.2226C2.93347 22.385 3.79347 24.0961 4.49647 25.0973C5.22547 26.1245 7.01747 27.9237 8.04347 28.6486C8.96547 29.2954 10.6995 30.1865 11.7415 30.5519C14.0608 31.3408 16.5385 31.5451 18.9555 31.1466ZM13.4135 25.7751C12.6658 25.6623 11.9485 25.3997 11.3045 25.0032C10.7265 24.6327 6.36147 20.3515 6.14847 19.95C5.90347 19.4915 6.33047 18.6565 6.94047 18.4012L7.22647 18.281L6.34647 17.3839C5.86247 16.8883 5.40347 16.3617 5.33047 16.2155C5.15847 15.8821 5.15347 15.1672 5.31447 14.8489C5.38247 14.7187 5.54347 14.5205 5.66847 14.4103C5.88247 14.2331 5.90247 14.17 5.88247 13.7215C5.85647 13.325 5.89247 13.1688 6.06447 12.8714C6.31447 12.4439 6.83047 12.1566 7.33547 12.1516C7.61647 12.1516 7.68947 12.1155 7.80947 11.9063C8.12247 11.3586 9.01747 11.1604 9.70047 11.4948L10.0705 11.672L10.2525 11.4948C10.5025 11.2655 11.0025 11.0623 11.3305 11.0623C11.9865 11.0623 12.9135 11.8182 12.9135 12.3498C12.9135 12.9856 12.3355 13.0957 11.7625 12.5691C11.3825 12.2147 11.1895 12.1776 11.0335 12.4279C10.9555 12.5481 11.1425 12.7723 12.2625 13.9037C13.3825 15.0301 13.5855 15.2704 13.5855 15.4836C13.5766 15.6471 13.5071 15.8014 13.3906 15.9162C13.274 16.031 13.1189 16.0981 12.9555 16.1044C12.7525 16.1044 12.4195 15.812 10.8825 14.2792C9.31447 12.7143 9.02847 12.464 8.90347 12.5431C8.56447 12.7573 8.67947 12.9135 10.5125 14.7537C11.5075 15.755 12.3255 16.641 12.3255 16.7251C12.3255 16.8973 12.1695 17.2157 12.0395 17.2988C11.9328 17.3457 11.8168 17.3673 11.7005 17.3619C11.4865 17.3669 11.1585 17.0695 9.41447 15.3284C7.66447 13.5863 7.35147 13.305 7.22647 13.3831C6.88247 13.6023 6.99747 13.7535 8.99247 15.761C10.0815 16.8513 10.9925 17.8265 11.0185 17.9306C11.0755 18.1188 10.9505 18.4472 10.7845 18.5614C10.6743 18.6083 10.555 18.6298 10.4355 18.6244C10.2215 18.6244 9.95147 18.3902 8.50847 16.9454C7.11747 15.5527 6.79447 15.2664 6.61747 15.2824C6.11747 15.3394 6.29447 15.5637 8.87747 18.1559C11.1175 20.4036 11.4035 20.722 11.4035 20.9563C11.4057 21.0423 11.3864 21.1275 11.3473 21.2041C11.3081 21.2807 11.2504 21.3463 11.1795 21.3948C10.7785 21.7132 10.6225 21.6401 9.61147 20.6599C9.09547 20.1643 8.56447 19.6847 8.42347 19.5956C8.16847 19.4394 7.52247 19.3713 7.40247 19.4965C7.36047 19.5325 8.31347 20.5398 9.51747 21.7332C11.5225 23.7196 11.7515 23.9239 12.3405 24.2052C12.8831 24.4757 13.4807 24.6174 14.0868 24.6191C14.6929 24.6208 15.2913 24.4826 15.8355 24.2152C17.5175 23.4122 18.4505 21.4619 17.9915 19.6937C17.7625 18.8127 17.4755 18.3902 16.3195 17.1957C14.9865 15.829 14.6785 15.4536 14.3505 14.7968C13.9855 14.0619 13.8295 13.347 13.8295 12.4549C13.8295 11.4898 13.9285 11.0522 14.3555 10.1501C14.7615 9.2901 15.6105 8.388 16.4495 7.92344C18.0955 7.00532 20.2625 7.08342 21.8345 8.11167C22.1475 8.31491 23.2775 9.37921 24.6835 10.7919C26.7725 12.8885 27.0115 13.1598 27.0115 13.3991C27.0115 13.9678 26.5475 14.5985 26.0325 14.7287C25.8395 14.7808 25.8765 14.8328 26.7515 15.7249C27.2615 16.2415 27.7355 16.7992 27.8085 16.9714C28.0535 17.5611 27.9435 18.1338 27.4955 18.6034C27.2665 18.8437 27.2355 18.9268 27.2295 19.4064C27.2245 19.8289 27.1775 20.0061 27.0105 20.2464C26.8786 20.4419 26.702 20.603 26.4953 20.7164C26.2887 20.8297 26.058 20.8921 25.8225 20.8982C25.4995 20.8982 25.4375 20.9292 25.2755 21.1745C24.9105 21.7382 23.9625 21.9355 23.3485 21.571L23.0415 21.3888L22.8225 21.6031C22.3385 22.0676 21.5565 22.1297 20.9635 21.7492C20.4845 21.4469 20.1305 21.0243 20.1305 20.758C20.1305 20.5237 20.4695 20.1373 20.6775 20.1373C20.8755 20.1373 21.1415 20.2935 21.4435 20.5758C21.7455 20.8622 22.0065 20.8622 22.0475 20.5708C22.0685 20.4146 21.8185 20.1172 20.8075 19.1C19.7445 18.0257 19.5415 17.7804 19.5415 17.5722C19.5391 17.4559 19.5605 17.3404 19.6045 17.2327C19.7195 17.0605 20.0425 16.9404 20.2395 16.9925C20.3435 17.0185 21.2235 17.8325 22.1875 18.7966C23.1565 19.7668 24.0055 20.5588 24.0835 20.5588C24.2975 20.5588 24.4375 20.3445 24.3385 20.1623C24.2915 20.0792 23.4735 19.2392 22.5255 18.29C21.0415 16.8092 20.8015 16.5329 20.8015 16.3136C20.7966 16.1956 20.8181 16.0779 20.8645 15.9692C20.9535 15.8391 21.2655 15.6829 21.4425 15.6829C21.5205 15.6829 22.4995 16.595 23.6195 17.7113C25.6715 19.7558 25.8225 19.8699 26.0365 19.5315C26.1145 19.4064 25.8335 19.088 24.0935 17.3409C22.2965 15.5367 22.0575 15.2654 22.0575 15.0311C22.0575 14.8699 22.1305 14.7027 22.2455 14.5985C22.6255 14.2391 22.7405 14.3122 24.5895 16.1524C26.3395 17.8996 26.4955 18.0137 26.7095 17.6803C26.7875 17.5551 26.4335 17.1697 24.2615 14.989C21.8965 12.6111 21.7255 12.4179 21.7255 12.1416C21.7255 11.7241 21.9655 11.5258 22.4285 11.5579C22.5115 11.5629 23.0115 11.9854 23.5275 12.491C24.0485 12.9966 24.6105 13.4712 24.7775 13.5443C25.1055 13.6794 25.4855 13.7005 25.6475 13.5963C25.8035 13.4972 21.4805 9.23704 20.9185 8.93967C20.4366 8.67928 19.9066 8.52037 19.3611 8.47274C18.8156 8.42511 18.2661 8.48976 17.7465 8.6627C17.2269 8.83565 16.7481 9.11324 16.3397 9.47838C15.9312 9.84353 15.6017 10.2885 15.3715 10.7859C15.1005 11.3646 15.0645 11.5368 15.0275 12.2827C14.9965 12.9866 15.0225 13.2059 15.1735 13.6544C15.4445 14.4524 15.6785 14.7808 16.8925 16.0223C18.2055 17.3679 18.4555 17.6753 18.7885 18.3952C19.7265 20.3976 19.3305 22.7134 17.7835 24.2563C16.6065 25.4397 15.0025 25.9934 13.4135 25.7751Z" fill="white"/>
</svg>
